<svg xmlns="http://www.w3.org/2000/svg" width="32" height="32" viewBox="0 0 32 32" fill="none">
<path d="M5.73281 5.73281C5.15483 5.15483 5.1508 4.21173 5.77969 3.68961C7.82178 1.99421 10.2602 0.828256 12.8785 0.307437C15.9822 -0.309928 19.1993 0.00692398 22.1229 1.21792C25.0465 2.42892 27.5454 4.47968 29.3035 7.11086C31.0616 9.74205 32 12.8355 32 16C32 19.1645 31.0616 22.2579 29.3035 24.8891C27.5454 27.5203 25.0466 29.5711 22.123 30.7821C19.1993 31.9931 15.9823 32.3099 12.8786 31.6926C10.2603 31.1718 7.82182 30.0058 5.77972 28.3104C5.15083 27.7883 5.15486 26.8452 5.73283 26.2672V26.2672C6.31081 25.6892 7.24325 25.6969 7.88297 26.2057C9.50283 27.494 11.4122 28.3829 13.456 28.7894C15.9856 29.2926 18.6075 29.0344 20.9902 28.0474C23.373 27.0604 25.4095 25.389 26.8424 23.2446C28.2752 21.1002 29.04 18.5791 29.04 16C29.04 13.4209 28.2752 10.8998 26.8424 8.75535C25.4095 6.61094 23.3729 4.93957 20.9902 3.95261C18.6074 2.96564 15.9855 2.70741 13.456 3.21056C11.4122 3.61711 9.50281 4.50599 7.88294 5.79435C7.24323 6.30315 6.31078 6.31079 5.73281 5.73281V5.73281Z" fill="#68F58C"/>
<path d="M13 8V14H16.5C18.9853 14 21 16.0147 21 18.5V18.5C21 20.9853 18.9853 23 16.5 23H13" stroke="#68F58C" stroke-width="3" stroke-linecap="round" stroke-linejoin="round"/>
<rect x="11.5" y="17" width="4" height="3" rx="1.5" fill="#68F58C"/>
</svg>