<svg xmlns="http://www.w3.org/2000/svg" width="360" height="161.761" viewBox="0 0 360 161.761">
  <path id="Logo" fill="#fff" d="M257.993,50.728a10.117,10.117,0,0,0-4.227.874,2.59,2.59,0,1,1,4.253-.929c-.007.019-.018.036-.025.055m32,11.916a2.6,2.6,0,1,0-3.351,1.513,2.555,2.555,0,0,0,.916.167,2.6,2.6,0,0,0,2.435-1.68M244.93,48.358a2.6,2.6,0,1,0-.916-.167,2.559,2.559,0,0,0,.916.167m32.888,6.963a2.59,2.59,0,1,0-1.828,4.847,2.638,2.638,0,0,0,.911.168,2.589,2.589,0,0,0,.917-5.015M104.867,44.832a2.591,2.591,0,1,0,3.346,1.518,2.579,2.579,0,0,0-3.346-1.518m14.01-2.446a2.591,2.591,0,1,0-1.528,3.33,2.6,2.6,0,0,0,1.528-3.33M193.7,141.364a2.59,2.59,0,0,0,2.424-3.516,2.539,2.539,0,0,0-.4-.673,45.421,45.421,0,0,1-4.547.981,2.564,2.564,0,0,0,.1,1.55,2.6,2.6,0,0,0,2.425,1.659m103.167-23.916,1.189-.479a38.71,38.71,0,0,1,3.311-5.1l.009-.012.008-.012a31.328,31.328,0,0,1,5.555-6.121l-13.179,5.313ZM169.832,142.055a2.58,2.58,0,0,0,1.96-4.278c-1.007-.2-2-.43-2.978-.693a2.584,2.584,0,0,0,.025,4.772,2.629,2.629,0,0,0,.993.2m34.491-4.766a2.593,2.593,0,0,0,2.425-3.522,2.555,2.555,0,0,0-.739-1.025,36.859,36.859,0,0,1-4.255,2.28,2.551,2.551,0,0,0,2.569,2.267m-45.007.416a2.587,2.587,0,0,0,2.543-3.113c-1.231-.559-2.433-1.167-3.6-1.835a2.586,2.586,0,0,0,1.052,4.949M288.39,99.676c-.039.014-.071.038-.109.055l2.248,4.639a2.567,2.567,0,0,0,1.216-3.207,2.6,2.6,0,0,0-3.356-1.487M94.2,48.795a2.586,2.586,0,0,0-1.556,3.228l4.924,0a2.549,2.549,0,0,0-.027-1.7A2.6,2.6,0,0,0,94.2,48.795M40.87,68.627a2.59,2.59,0,0,0,.907,5.02,2.731,2.731,0,0,0,.911-.163,2.581,2.581,0,0,0,1.128-.834l.52-1.21a2.543,2.543,0,0,0-.125-1.29,2.6,2.6,0,0,0-3.341-1.523M299.129,63.3a2.588,2.588,0,1,0,1.518,3.339,2.6,2.6,0,0,0-1.518-3.339m-32.7-8.656.019.04.718,1.482a2.586,2.586,0,1,0-2.916-4.058,6.566,6.566,0,0,1,2.158,2.5Zm-84.952,90.273a2.617,2.617,0,0,0,.933-.173,2.6,2.6,0,1,0-.933.173M148.8,133.362a2.6,2.6,0,1,0-.993-.2,2.629,2.629,0,0,0,.993.2m105.677-6.486-7.926,3.2-1.35,3.238-.022.052-.023.052c-2.139,4.827-8.615,4.827-16.115,4.827-.9,0-1.816,0-2.715-.014L190.166,152.8a25.13,25.13,0,0,1-19.555-.269L135.6,137.329a6.907,6.907,0,0,1-2.322.419H118.728l49.033,21.3a32.229,32.229,0,0,0,25.079.343l77.1-31.083-.588-1.431ZM299.013,95.6a2.587,2.587,0,0,0,.937,5,2.631,2.631,0,0,0,.932-.173,2.59,2.59,0,1,0-1.869-4.831m12.728,8.187c.072,0,.142-.011.215-.011a6.2,6.2,0,0,1,3.753,1.272l.151.111.142.123a22.675,22.675,0,0,0,4.246,2.739l3.585-1.445a73.682,73.682,0,0,1-8.577-4.207Zm-97.727,24.418a2.585,2.585,0,0,0,.791,5,6.381,6.381,0,0,1-.376-2.114,6.814,6.814,0,0,1,.734-3.038,2.589,2.589,0,0,0-1.149.155m-156.3-16.96,18.5,8.037v-7.751l-15.45-6.711Zm-21.8-34.037a2.584,2.584,0,0,0-.678.174l2.041,4.738a2.582,2.582,0,0,0-1.363-4.912M67.071,96.99a2.58,2.58,0,0,0-1.062-3.2l-2.2,4.637a2.564,2.564,0,0,0,.862.162,2.606,2.606,0,0,0,2.4-1.6m5.713,2.36a2.591,2.591,0,0,0,1.406,3.385,2.63,2.63,0,0,0,1,.2,2.587,2.587,0,0,0,1.029-.217V97.969c-.013-.006-.023-.014-.036-.019a2.609,2.609,0,0,0-3.4,1.4M38.578,133.93c1.162,0,2.656-.054,3.266-1.147L76.77,59.294a2.277,2.277,0,0,0,.221-.82c0-2.076-4.871-2.076-9.741-2.076-5.48,0-10.85,0-11.734,1.912L38.522,97.868,21.475,58.311C20.645,56.4,15.165,56.4,9.741,56.4,4.871,56.4,0,56.4,0,58.474a2.219,2.219,0,0,0,.277.875l34.981,73.433c.553,1.093,1.992,1.147,3.321,1.147M82.8,132.674h50.479c2.38,0,2.436-4.59,2.436-9.071,0-4.589-.056-9.124-2.491-9.124l-32.933.055V101.639h27.287c2.271,0,2.326-3.988,2.326-7.976,0-3.934-.055-7.923-2.326-7.923H100.295V75.194h32.988c2.38,0,2.436-4.534,2.436-9.125,0-4.535-.056-9.015-2.436-9.015L82.8,57.109a1.491,1.491,0,0,0-1.494,1.53v72.451a1.575,1.575,0,0,0,1.494,1.585m99.8,1.092c24.355,0,36.31-16.118,36.31-38.3,0-1.913-.055-5.027-1.772-5.027H182.822c-2.269,0-2.324,3.988-2.324,7.922,0,3.989.055,7.977,2.324,7.977h14.5c-1.384,5.791-6.144,9.015-14.834,9.07-10.406-.109-19.594-8.742-19.594-20.6a19.685,19.685,0,0,1,19.7-20.052,30.209,30.209,0,0,1,17.048,5.191,1.559,1.559,0,0,0,.941.273c1.993,0,4.1-3.716,5.757-7.759.941-2.295,2.047-5.518,2.047-7.594a2.234,2.234,0,0,0-.663-1.858c-7.14-5.027-15-7.1-25.35-7.1-23.191,0-40.073,16.664-40.073,38.9s15.83,38.957,40.294,38.957m46.441-.6c5.369,0,10.682-.055,11.457-1.8l3.986-9.562h28.283l3.931,9.562c.718,1.747,6.032,1.8,11.4,1.8,4.76,0,9.575-.109,9.575-2.076a1.475,1.475,0,0,0-.221-.765L261.864,56.89C261.31,55.8,259.981,55.8,258.6,55.8s-2.766,0-3.321,1.092l-35.534,73.379a1.812,1.812,0,0,0-.221.82c0,2.076,4.76,2.076,9.52,2.076m29.667-43.6,7.417,17.047H251.292Zm70.849,44.257c17.1,0,30.443-9.726,30.443-23.057,0-15.846-15.055-21.856-24.908-25.79C330,82.9,325.85,81.313,325.85,78.582c0-2.568,2.435-4.425,8.357-4.425a26.355,26.355,0,0,1,14.336,4.534,2.014,2.014,0,0,0,1.107.328c2.1,0,4.649-3.387,6.809-6.72,1.6-2.4,3.1-5.3,3.1-7.048a1.657,1.657,0,0,0-.443-1.312c-5.314-4.535-14.557-8.032-24.908-8.032-17.435,0-28.947,9.835-28.947,23.167,0,14.425,14.169,20.271,23.911,24.205,5.535,2.295,10.184,4.262,10.184,7.486,0,2.786-2.878,5.026-9.8,5.026-6.143,0-13.45-3.715-16.881-6.665a1.176,1.176,0,0,0-.719-.274c-1.661,0-4.207,2.951-6.476,6.01-1.883,2.568-3.653,5.136-3.653,6.885a1.557,1.557,0,0,0,.388,1.092c5.922,6.721,16.826,10.983,27.342,10.983M315.829,54.813a31.247,31.247,0,0,0-5.86,3.75c-.432.352-.848.717-1.253,1.088l-70.894-27.9v5.8a7.118,7.118,0,0,1-7.13,7.1H132.408a7.118,7.118,0,0,1-7.129-7.1V28.478L66.82,51.323a74.058,74.058,0,0,0-7.728.271c-1.753.2-6.408.717-8.2,4.592l-.03.064-.027.064-.649,1.511L36.753,63.074a14.262,14.262,0,0,0-5.86,4.231l-3.038-7.051a21.619,21.619,0,0,1,6.295-3.793l91.129-35.614V7.1A7.117,7.117,0,0,1,132.408,0h98.285a7.117,7.117,0,0,1,7.13,7.1V24.112ZM162.006,31.72c0-1.617,0-3.2-.859-3.2l-11.624-.019V8.889c0-.789-1.657-.789-3.335-.789-1.7,0-3.355,0-3.355.789V34.357a.555.555,0,0,0,.527.559h17.768c.878,0,.878-1.6.878-3.2m9.831-22.85c0-.77-1.658-.789-3.336-.789-1.7,0-3.355.019-3.355.789V34.28c0,.79,1.658.809,3.355.809,1.677,0,3.336-.019,3.336-.809Zm29.49-.1c0-.732-1.715-.732-3.433-.732-1.93,0-3.822,0-4.134.674l-5.988,13.937L181.765,8.716c-.293-.674-2.223-.674-4.135-.674-1.716,0-3.432,0-3.432.732a.777.777,0,0,0,.1.309l12.327,25.872c.194.384.7.4,1.17.4.409,0,.936-.02,1.15-.4L201.248,9.063a.776.776,0,0,0,.078-.289m8.212,9.606V14.664h11.624c.839,0,.859-1.6.859-3.214,0-1.6-.02-3.176-.859-3.176l-17.788.019a.525.525,0,0,0-.526.539V34.357a.555.555,0,0,0,.526.559h17.788c.839,0,.859-1.618.859-3.2,0-1.617-.02-3.214-.879-3.214l-11.6.019V23.982h9.615c.8,0,.82-1.4.82-2.811,0-1.385-.02-2.791-.82-2.791Z"/>
</svg>
