<svg xmlns="http://www.w3.org/2000/svg" width="80" height="64" viewBox="0 0 80 64" fill="none">
<path fill-rule="evenodd" clip-rule="evenodd" d="M5.88731 0.440031L78.169 28.9189C79.9718 29.5104 79.9155 31.4259 79.9155 31.4259C79.9155 32.5809 79.1267 33.3414 78.169 33.1442L5.88731 23.0879C2.81689 22.4682 0.225342 20.2428 0.225342 18.1302V2.38369C0.225342 0.271019 2.78872 -0.602222 5.88731 0.440031Z" fill="black"/>
<path d="M5.71832 24.0738L46.4225 41.5386C49.5775 42.8907 67.4648 38.5245 67.4648 35.8484V29.5386C67.4648 26.8625 64.845 23.6794 61.6338 22.4682L5.71832 1.03157C3.21128 0.0738199 1.18311 1.20058 1.18311 3.51044V17.8766C1.18311 20.2147 3.21128 22.9752 5.71832 24.0738Z" fill="url(#paint0_linear_3238_353)"/>
<path fill-rule="evenodd" clip-rule="evenodd" d="M5.71832 24.0738L46.4225 41.5386C49.5775 42.8907 67.4648 38.5245 67.4648 35.8484V29.5386C67.4648 26.8625 64.845 23.6794 61.6338 22.4682L5.71832 1.03157C3.21128 0.0738199 1.18311 1.20058 1.18311 3.51044V17.8766C1.18311 20.2147 3.21128 22.9752 5.71832 24.0738Z" fill="#B91200"/>
<path fill-rule="evenodd" clip-rule="evenodd" d="M5.71832 24.0738L46.4225 41.5386C49.5775 42.8907 67.4648 38.5245 67.4648 35.8484V29.5386C67.4648 26.8625 64.845 23.6794 61.6338 22.4682L5.71832 1.03157C3.21128 0.0738199 1.18311 1.20058 1.18311 3.51044V17.8766C1.18311 20.2147 3.21128 22.9752 5.71832 24.0738Z" fill="url(#paint1_linear_3238_353)"/>
<path fill-rule="evenodd" clip-rule="evenodd" d="M5.71832 39.3133L46.4225 21.8203C49.5775 20.4682 67.4648 24.8344 67.4648 27.5105V33.8485C67.4648 36.5246 64.845 39.7077 61.6338 40.9471L5.71832 62.4119C3.21128 63.3696 1.18311 62.2429 1.18311 59.9048V45.5105C1.18311 43.1725 3.21128 40.4119 5.71832 39.3133Z" fill="#7C1300"/>
<path d="M5.71832 39.3133L46.4225 21.8203C49.5775 20.4682 67.4648 24.8344 67.4648 27.5105V33.8485C67.4648 36.5246 64.845 39.7077 61.6338 40.9471L5.71832 62.4119C3.21128 63.3696 1.18311 62.2429 1.18311 59.9048V45.5105C1.18311 43.1725 3.21128 40.4119 5.71832 39.3133Z" fill="url(#paint2_linear_3238_353)"/>
<path d="M5.88731 0.440031L78.169 28.9189C79.9718 29.5104 79.9155 31.4259 79.9155 31.4259C79.9155 32.5809 79.1267 33.3414 78.169 33.1442L5.88731 23.0879C2.81689 22.4682 0.225342 20.2428 0.225342 18.1302V2.38369C0.225342 0.271019 2.78872 -0.602222 5.88731 0.440031Z" fill="url(#paint3_linear_3238_353)"/>
<path d="M5.88731 0.440031L78.169 28.9189C79.9718 29.5104 79.9155 31.4259 79.9155 31.4259C79.9155 32.5809 79.1267 33.3414 78.169 33.1442L5.88731 23.0879C2.81689 22.4682 0.225342 20.2428 0.225342 18.1302V2.38369C0.225342 0.271019 2.78872 -0.602222 5.88731 0.440031Z" fill="url(#paint4_linear_3238_353)"/>
<path d="M5.66197 62.947L78.2253 34.4681C80.0281 33.8766 80 31.9611 80 31.9611C80 30.8061 79.2112 30.0456 78.2253 30.2428L5.66197 40.2991C2.56338 40.9188 0 43.1442 0 45.2568V61.0033C0 63.116 2.59155 63.9892 5.66197 62.947Z" fill="url(#paint5_linear_3238_353)"/>
<defs>
<linearGradient id="paint0_linear_3238_353" x1="56.1051" y1="5.53536" x2="29.7577" y2="47.6554" gradientUnits="userSpaceOnUse">
<stop stop-color="#540019" stop-opacity="0.25"/>
<stop offset="1" stop-color="#AB3300" stop-opacity="0"/>
</linearGradient>
<linearGradient id="paint1_linear_3238_353" x1="38.9224" y1="16.8648" x2="-20.2827" y2="46.621" gradientUnits="userSpaceOnUse">
<stop offset="0.2114" stop-color="#540019" stop-opacity="0.5"/>
<stop offset="0.2539" stop-color="#620815" stop-opacity="0.4289"/>
<stop offset="0.4264" stop-color="#972706" stop-opacity="0.1408"/>
<stop offset="0.5106" stop-color="#AB3300" stop-opacity="0"/>
</linearGradient>
<linearGradient id="paint2_linear_3238_353" x1="39.5364" y1="21.1703" x2="34.1976" y2="69.4905" gradientUnits="userSpaceOnUse">
<stop offset="0.1471" stop-color="#250019" stop-opacity="0.5"/>
<stop offset="0.2989" stop-color="#62170E" stop-opacity="0.2953"/>
<stop offset="0.4463" stop-color="#972B04" stop-opacity="0.0965687"/>
<stop offset="0.5179" stop-color="#AB3300" stop-opacity="0"/>
</linearGradient>
<linearGradient id="paint3_linear_3238_353" x1="17.7497" y1="32.9478" x2="26.4577" y2="-3.2723" gradientUnits="userSpaceOnUse">
<stop stop-color="#F03A2C"/>
<stop offset="1" stop-color="#EA5972"/>
</linearGradient>
<linearGradient id="paint4_linear_3238_353" x1="47.6049" y1="36.3366" x2="44.2473" y2="6.72184" gradientUnits="userSpaceOnUse">
<stop stop-color="#800013"/>
<stop offset="0.3997" stop-color="#BF1D00" stop-opacity="0"/>
</linearGradient>
<linearGradient id="paint5_linear_3238_353" x1="11.8065" y1="62.4067" x2="18.9806" y2="26.942" gradientUnits="userSpaceOnUse">
<stop stop-color="#F55D49"/>
<stop offset="1" stop-color="#F16F8F"/>
</linearGradient>
</defs>
</svg>